<?xml version="1.0" standalone="no"?>
<!DOCTYPE svg PUBLIC "-//W3C//DTD SVG 20010904//EN"
 "http://www.w3.org/TR/2001/REC-SVG-20010904/DTD/svg10.dtd">
<svg version="1.0" xmlns="http://www.w3.org/2000/svg"
 width="300.000000pt" height="200.000000pt" viewBox="0 0 300.000000 200.000000"
 preserveAspectRatio="xMidYMid meet">
<metadata>
Created by potrace 1.10, written by Peter Selinger 2001-2011
</metadata>
<g transform="translate(0.000000,200.000000) scale(0.050000,-0.050000)"
fill="#ffffff" stroke="none">
<path d="M2985 3068 c-143 -125 -150 -231 -20 -314 l55 -35 0 -339 0 -340 -93
0 -93 0 11 400 c6 231 2 400 -8 400 -22 0 -181 -102 -203 -130 -9 -11 -13
-173 -10 -359 l6 -340 -88 -15 c-130 -22 -282 -76 -282 -100 0 -11 11 -16 26
-10 227 87 1109 102 1410 25 153 -40 126 8 -32 55 l-122 37 -6 123 c-9 183
-76 196 -76 15 l0 -121 -60 0 -60 0 0 202 0 201 55 -12 c104 -23 89 168 -21
270 -112 105 -114 103 -114 -79 l0 -158 -72 -43 c-72 -42 -78 -62 -49 -171 16
-59 -1 -170 -27 -170 -23 0 -26 89 -17 550 6 303 7 550 3 550 -4 -1 -55 -42
-113 -92z"/>
<path d="M2257 1684 c-148 -18 -156 -167 -12 -239 144 -71 126 -118 -40 -106
-92 6 -94 -68 -3 -86 233 -47 333 169 119 254 -121 48 -101 123 25 99 33 -7
54 -2 54 12 0 12 0 29 0 37 -1 21 -80 37 -143 29z"/>
<path d="M2964 1683 c-19 -12 -24 -71 -20 -225 l6 -208 140 0 c173 0 220 74
55 86 l-85 6 0 148 c0 200 -20 241 -96 193z"/>
<path d="M3742 1674 c-128 -45 -118 -175 18 -229 130 -51 104 -131 -35 -110
-97 15 -95 -68 2 -86 204 -38 300 154 123 249 -110 59 -114 63 -90 92 15 18
46 23 91 16 55 -9 69 -5 69 22 0 25 -81 79 -106 71 -2 -1 -35 -12 -72 -25z"/>
<path d="M2552 1483 c-40 -108 -72 -207 -72 -220 0 -41 58 -24 92 27 25 39 50
50 108 50 58 0 83 -11 108 -50 35 -53 83 -66 96 -27 5 13 -27 112 -70 220
-112 282 -158 282 -262 0z m165 16 c23 -65 -5 -96 -66 -72 -23 9 -24 22 -5 72
29 77 45 77 71 0z"/>
<path d="M3304 1465 l6 -215 100 -4 c142 -6 190 8 190 54 0 35 -14 40 -100 40
-93 0 -100 3 -100 50 0 45 8 50 80 50 67 0 80 7 80 40 0 33 -13 40 -80 40 -67
0 -80 7 -80 40 0 34 13 40 90 40 77 0 90 6 90 40 0 36 -13 40 -141 40 l-140 0
5 -215z"/>
<path d="M2154 1147 c-21 -20 -17 -247 4 -247 10 0 24 34 32 75 l14 75 27 -65
c34 -81 62 -83 79 -5 18 82 50 76 50 -10 0 -45 10 -70 27 -70 28 0 23 214 -7
246 -21 23 -80 -41 -80 -87 0 -62 -50 -45 -71 25 -19 63 -49 89 -75 63z"/>
<path d="M2523 1117 c-10 -26 -33 -82 -51 -125 -37 -88 -28 -112 29 -76 47 29
119 32 119 4 0 -11 14 -20 32 -20 37 0 28 59 -28 176 -42 88 -78 102 -101 41z"/>
<path d="M2720 1030 c0 -149 52 -194 64 -55 l6 75 50 -75 c28 -41 60 -75 73
-75 25 0 46 209 24 245 -23 36 -57 -6 -57 -71 l0 -63 -61 74 c-85 103 -99 95
-99 -55z"/>
<path d="M3073 1145 c-27 -43 -91 -234 -82 -243 6 -6 28 0 50 14 49 31 113 31
124 0 4 -13 22 -17 41 -10 31 12 30 23 -16 126 -27 62 -50 116 -50 120 0 15
-58 8 -67 -7z"/>
<path d="M3305 1130 c-81 -58 -52 -214 45 -238 76 -19 134 20 126 84 -7 66
-63 73 -72 9 -12 -83 -90 -37 -81 47 6 49 17 59 73 64 40 4 63 16 59 30 -12
37 -100 39 -150 4z"/>
<path d="M3534 1148 c-8 -8 -14 -67 -14 -131 l0 -117 90 0 c50 0 90 9 90 20 0
11 -27 20 -60 20 -40 0 -60 10 -60 30 0 19 19 30 52 30 32 0 48 9 43 25 -5 14
-25 25 -45 25 -20 0 -40 11 -45 25 -5 16 13 25 55 25 42 0 61 9 55 25 -9 27
-138 46 -161 23z"/>
<path d="M3755 1148 c-30 -30 -17 -248 15 -248 17 0 30 18 30 40 0 22 9 40 19
40 11 0 29 -18 41 -40 12 -22 35 -40 51 -40 35 0 37 24 5 56 -18 18 -17 35 4
74 39 74 -106 178 -165 118z m120 -83 c5 -15 -9 -25 -33 -25 -25 0 -42 13 -42
31 0 37 62 32 75 -6z"/>
</g>
</svg>
