<?xml version="1.0" standalone="no"?>
<!DOCTYPE svg PUBLIC "-//W3C//DTD SVG 20010904//EN"
 "http://www.w3.org/TR/2001/REC-SVG-20010904/DTD/svg10.dtd">
<svg version="1.0" xmlns="http://www.w3.org/2000/svg"
 width="960.000000pt" height="608.000000pt" viewBox="0 0 960.000000 608.000000"
 preserveAspectRatio="xMidYMid meet">

<g transform="translate(0.000000,608.000000) scale(0.100000,-0.100000)"
fill="#000000" stroke="none">
<path d="M4628 4937 c-76 -45 -138 -85 -138 -90 0 -17 233 -348 240 -340 10
12 211 445 208 448 -26 24 -116 65 -141 64 -21 0 -79 -28 -169 -82z"/>
<path d="M4987 4913 c-27 -45 -217 -468 -215 -478 6 -24 553 -814 559 -807 13
13 449 819 449 828 0 7 -748 451 -780 462 -4 2 -10 -1 -13 -5z"/>
<path d="M3710 4401 l-715 -418 -3 -99 -2 -99 61 -75 c465 -568 822 -1001 828
-1004 4 -3 189 384 412 860 l404 864 22 -24 21 -25 12 30 c10 24 10 33 -5 56
l-18 26 -14 -26 c-7 -15 -15 -27 -17 -27 -1 0 -61 85 -132 190 -71 104 -131
189 -134 189 -3 0 -327 -188 -720 -418z"/>
<path d="M5601 3998 l-234 -431 -19 23 c-20 25 -20 25 -37 -8 -10 -19 -9 -28
5 -49 l17 -26 14 27 c8 16 18 24 23 20 4 -5 207 -299 450 -654 243 -355 447
-651 454 -658 11 -11 43 42 175 283 l161 297 -2 581 -3 580 -383 224 c-211
122 -384 223 -385 223 -1 -1 -107 -195 -236 -432z"/>
<path d="M4715 4332 c-10 -20 -191 -406 -402 -857 -212 -451 -386 -822 -389
-824 -2 -2 -12 7 -23 20 l-19 24 -12 -29 c-11 -29 -11 -29 -29 -10 -10 10
-184 222 -387 469 -202 248 -389 476 -416 508 l-48 58 0 -913 1 -913 196 -113
c107 -63 199 -110 203 -105 4 4 110 227 235 496 125 268 231 487 234 487 3 0
12 -10 20 -22 l13 -22 15 28 c13 24 17 26 28 15 8 -8 124 -149 260 -314 135
-165 249 -301 253 -302 8 -3 842 1528 842 1546 0 11 -535 797 -549 805 -4 3
-16 -12 -26 -32z"/>
<path d="M5302 3448 c-16 -29 -199 -366 -407 -748 -207 -382 -384 -706 -393
-719 l-15 -25 -18 23 -18 22 -16 -25 -17 -25 -256 314 c-142 173 -260 314
-263 314 -7 1 -462 -969 -457 -974 9 -9 590 -345 596 -345 4 0 90 153 192 340
101 187 187 340 191 340 4 0 12 -7 19 -15 17 -20 27 -19 35 6 4 11 10 19 15
17 5 -2 171 -201 370 -443 198 -242 366 -439 373 -437 7 2 148 83 313 179
l302 176 191 352 c105 193 197 360 205 370 13 18 14 18 27 -3 17 -27 26 -28
34 -2 3 11 10 20 14 20 5 0 57 -71 116 -157 60 -87 110 -160 111 -162 2 -2 17
2 34 9 l30 12 0 416 c0 228 -2 413 -4 411 -2 -2 -65 -116 -140 -253 -75 -137
-139 -252 -142 -255 -3 -3 -14 5 -23 18 l-19 24 -14 -27 -15 -28 -45 63 c-24
35 -230 335 -457 667 -227 331 -414 602 -416 602 -2 0 -16 -24 -33 -52z"/>
<path d="M6119 1801 c-92 -168 -165 -308 -163 -310 1 -1 124 68 273 154 170
99 268 162 264 169 -18 31 -195 286 -201 289 -4 3 -82 -133 -173 -302z"/>
<path d="M4300 1608 c-84 -156 -166 -305 -181 -333 l-28 -50 338 -197 c249
-145 347 -198 371 -198 22 0 83 30 200 98 93 53 168 100 167 105 -4 14 -698
857 -706 857 -4 0 -77 -127 -161 -282z"/>
</g>
</svg>
